<?xml version="1.0" standalone="no"?>
<!DOCTYPE svg PUBLIC "-//W3C//DTD SVG 20010904//EN"
 "http://www.w3.org/TR/2001/REC-SVG-20010904/DTD/svg10.dtd">
<svg version="1.0" xmlns="http://www.w3.org/2000/svg"
 width="1069.000000pt" height="468.000000pt" viewBox="0 0 1069.000000 468.000000"
 preserveAspectRatio="xMidYMid meet">

<g transform="translate(0.000000,468.000000) scale(0.100000,-0.100000)"
fill="#000000" stroke="none">
<path d="M3543 4205 c-17 -12 -239 -141 -333 -193 -25 -14 -58 -33 -75 -42
-16 -10 -46 -26 -65 -36 -19 -11 -37 -21 -40 -24 -3 -3 -23 -14 -45 -25 -22
-11 -42 -22 -45 -25 -10 -10 -65 -42 -92 -53 -16 -6 -28 -15 -28 -19 0 -4 -7
-8 -15 -8 -8 0 -15 -4 -15 -9 0 -5 -17 -17 -37 -28 -21 -10 -59 -31 -85 -47
l-48 -28 0 -329 c0 -181 3 -329 6 -329 3 0 58 31 122 68 64 38 140 82 167 98
28 16 58 33 67 39 144 86 194 115 238 137 14 7 27 15 30 18 6 6 39 25 100 58
24 13 56 32 70 41 14 10 39 25 55 33 17 8 45 24 62 34 l33 19 0 92 c0 101 1
103 60 63 14 -10 45 -28 70 -42 25 -14 109 -64 188 -112 79 -47 147 -86 153
-86 5 0 9 -4 9 -10 0 -5 7 -10 15 -10 8 0 15 -4 15 -10 0 -5 5 -10 11 -10 6 0
57 -29 114 -65 57 -36 106 -65 108 -65 3 0 65 -37 138 -82 74 -44 148 -88 164
-97 17 -9 32 -19 33 -23 2 -5 10 -8 18 -8 8 0 14 -4 14 -10 0 -5 5 -10 10 -10
6 0 10 86 10 238 0 236 0 237 -23 248 -12 6 -76 44 -142 84 -66 40 -141 84
-167 98 -27 14 -48 29 -48 33 0 5 -7 9 -15 9 -8 0 -15 5 -15 10 0 6 -5 10 -12
10 -6 0 -39 17 -72 39 -80 50 -213 130 -251 149 -16 9 -67 40 -113 69 -46 30
-93 58 -105 63 -12 5 -42 23 -67 39 -25 17 -51 31 -57 31 -7 0 -13 4 -13 9 0
15 -38 19 -57 6z m-613 -572 c0 -87 11 -73 -110 -141 -25 -14 -57 -33 -72 -43
-14 -11 -29 -19 -32 -19 -3 0 -6 36 -6 80 0 44 4 80 9 80 5 0 54 27 108 59 54
33 99 60 101 60 1 1 2 -34 2 -76z"/>
<path d="M3523 3315 c-24 -13 -60 -34 -80 -47 -43 -26 -35 -21 -188 -110 -64
-38 -121 -68 -126 -68 -5 0 -9 -3 -9 -7 0 -5 -19 -17 -43 -28 -23 -11 -44 -22
-47 -25 -6 -6 -41 -26 -85 -49 -16 -9 -32 -18 -35 -21 -4 -4 -39 -24 -95 -54
-11 -6 -22 -13 -25 -16 -3 -3 -23 -14 -45 -25 -22 -11 -41 -23 -43 -27 -2 -5
-10 -8 -18 -8 -8 0 -14 -3 -14 -8 0 -4 -10 -12 -22 -17 -21 -9 -23 -17 -26
-106 l-3 -97 -67 25 c-37 14 -86 31 -109 39 -24 7 -58 20 -75 28 -18 8 -55 22
-83 31 -27 9 -59 21 -70 25 -11 5 -42 16 -70 25 -50 17 -74 26 -117 44 -22 10
-138 50 -263 92 -33 11 -69 24 -80 29 -11 5 -49 19 -84 30 -34 12 -92 33 -128
47 -57 23 -68 24 -87 13 -25 -16 -125 -74 -181 -105 -40 -23 -112 -64 -227
-132 -35 -20 -82 -47 -106 -60 -24 -12 -60 -34 -80 -48 -20 -14 -42 -25 -49
-25 -7 0 -13 -3 -13 -7 0 -5 -10 -13 -23 -19 -36 -18 -92 -49 -97 -54 -3 -3
-23 -14 -45 -25 -22 -11 -41 -23 -43 -27 -2 -5 -10 -8 -18 -8 -8 0 -14 -4 -14
-10 0 -5 -7 -10 -15 -10 -13 0 -15 -28 -15 -196 0 -153 3 -194 13 -188 6 4 36
23 64 41 50 32 123 73 170 97 13 6 23 14 23 19 0 4 5 7 10 7 9 0 275 151 488
277 41 23 75 43 77 43 2 0 26 14 54 31 l51 32 0 93 c0 75 3 94 14 94 8 0 17
-4 20 -9 3 -5 16 -11 28 -14 13 -3 68 -21 123 -41 55 -20 129 -47 165 -58 36
-12 66 -26 68 -30 2 -4 12 -8 22 -8 10 0 21 -4 24 -9 3 -5 23 -12 43 -16 21
-4 43 -10 48 -14 6 -4 28 -13 50 -20 22 -7 49 -16 60 -21 11 -4 43 -15 70 -25
28 -9 59 -20 70 -25 11 -4 54 -20 95 -35 41 -14 84 -30 95 -35 11 -5 56 -20
100 -35 44 -14 90 -31 102 -37 17 -8 29 -5 66 21 25 17 49 31 54 31 5 0 25 11
45 25 20 14 56 36 80 48 24 13 72 41 108 62 36 20 85 49 110 63 25 14 47 28
50 31 3 3 14 11 25 17 81 44 157 87 279 159 l141 82 5 96 5 96 85 -51 c47 -28
112 -69 146 -90 33 -21 66 -38 72 -38 7 0 12 -4 12 -10 0 -5 5 -10 10 -10 6 0
46 -22 90 -50 44 -27 82 -50 85 -50 3 0 5 42 5 93 l-1 92 -57 35 c-31 19 -64
38 -72 41 -9 4 -66 39 -128 78 -61 39 -114 71 -116 71 -3 0 -30 16 -61 35 -73
47 -73 47 -122 20z"/>
<path d="M5495 3291 c-107 -20 -176 -79 -208 -178 -15 -45 -17 -107 -17 -502
0 -431 1 -453 21 -506 22 -60 80 -126 125 -142 109 -39 178 -43 274 -16 66 18
130 65 157 117 40 74 43 95 43 364 l0 262 -155 0 -155 0 0 -95 0 -95 60 0 60
0 0 -128 c0 -195 -26 -252 -117 -252 -62 0 -89 16 -107 64 -14 36 -16 100 -16
434 0 430 1 440 58 481 38 26 77 27 120 1 43 -26 62 -74 62 -154 l0 -65 83 5
c45 3 88 7 95 10 16 5 16 157 -1 204 -33 91 -82 144 -157 172 -53 20 -169 30
-225 19z"/>
<path d="M7055 3291 c-91 -17 -184 -83 -213 -151 -37 -89 -41 -138 -42 -522 0
-381 4 -441 39 -518 62 -138 227 -202 402 -153 106 29 178 116 208 253 16 70
11 806 -6 861 -31 105 -87 174 -169 209 -49 21 -161 32 -219 21z m126 -186
c16 -9 39 -30 49 -48 19 -30 20 -53 20 -443 0 -305 -3 -417 -12 -436 -17 -36
-58 -58 -107 -58 -53 0 -82 14 -104 51 -15 28 -17 69 -17 440 0 446 0 445 57
488 34 24 73 27 114 6z"/>
<path d="M6080 2615 l0 -665 285 0 285 0 0 95 0 95 -180 0 -180 0 0 195 0 195
145 0 145 0 0 95 0 95 -145 0 -145 0 0 190 0 190 180 0 180 0 0 90 0 90 -285
0 -285 0 0 -665z"/>
<path d="M8010 2615 l0 -667 213 4 c184 3 217 6 247 22 63 34 92 60 129 116
l36 55 0 170 c0 167 0 171 -27 216 -31 52 -61 80 -105 99 l-30 14 36 24 c53
36 66 52 87 113 26 73 26 222 1 301 -23 71 -83 141 -146 170 -41 19 -67 22
-243 26 l-198 4 0 -667z m357 458 c53 -39 70 -181 33 -268 -23 -54 -62 -75
-140 -75 l-50 0 0 186 0 186 65 -4 c45 -3 73 -10 92 -25z m-7 -537 c19 -7 44
-27 56 -44 25 -37 37 -131 28 -221 -6 -52 -12 -69 -39 -97 -32 -33 -34 -34
-114 -34 l-81 0 0 205 0 205 58 -1 c31 0 73 -6 92 -13z"/>
<path d="M8810 2615 l0 -665 100 0 100 0 0 665 0 665 -100 0 -100 0 0 -665z"/>
<path d="M9230 2615 l0 -665 95 0 95 0 1 458 c1 263 5 444 9 427 5 -16 16 -61
24 -100 9 -38 27 -119 41 -180 14 -60 36 -162 51 -225 14 -63 30 -132 35 -152
l10 -38 58 0 59 0 27 118 c14 64 35 151 45 192 29 116 40 161 51 215 10 50 20
97 37 170 7 27 10 -114 11 -422 l1 -463 100 0 100 0 0 665 0 665 -135 0 -135
0 -6 -27 c-3 -16 -12 -55 -21 -88 -8 -33 -21 -89 -28 -125 -26 -132 -77 -366
-86 -396 -5 -17 -9 -40 -9 -52 0 -43 -18 -21 -24 31 -4 28 -15 84 -25 122 -10
39 -24 97 -31 130 -7 33 -18 87 -26 120 -7 33 -20 94 -29 135 -9 41 -21 92
-26 113 l-10 37 -129 0 -130 0 0 -665z"/>
<path d="M3544 2446 c-11 -8 -42 -26 -67 -40 -26 -14 -67 -37 -93 -51 -25 -14
-62 -36 -82 -50 -20 -14 -40 -25 -45 -25 -5 0 -27 -13 -50 -29 -23 -15 -60
-36 -82 -47 -22 -10 -42 -21 -45 -24 -3 -4 -12 -9 -20 -13 -17 -8 -53 -30 -60
-37 -4 -4 -39 -24 -95 -54 -11 -6 -22 -13 -25 -16 -3 -3 -23 -14 -45 -25 -22
-11 -41 -23 -43 -27 -2 -5 -10 -8 -18 -8 -8 0 -14 -3 -14 -7 0 -5 -20 -17 -45
-28 -25 -11 -45 -23 -45 -27 0 -5 -5 -8 -11 -8 -6 0 -17 -6 -25 -14 -12 -12
-14 -73 -14 -355 0 -188 2 -341 5 -341 3 0 23 11 45 25 22 14 42 25 45 25 2 0
29 16 59 35 30 19 58 35 61 35 4 0 19 8 33 19 27 18 84 51 172 99 24 13 56 31
70 41 14 9 44 26 67 36 24 11 43 23 43 28 0 4 7 7 15 7 8 0 15 3 15 8 0 4 20
16 45 27 25 11 45 22 45 25 0 3 17 14 38 25 20 11 60 33 87 50 28 17 62 37 78
44 27 14 27 16 27 108 0 51 3 93 6 93 3 0 18 -8 32 -18 15 -11 41 -25 57 -34
37 -18 78 -41 85 -48 3 -3 21 -14 40 -24 19 -11 54 -30 78 -43 24 -12 60 -34
80 -48 20 -14 42 -25 49 -25 7 0 13 -3 13 -7 0 -5 10 -13 23 -19 38 -19 92
-49 97 -55 8 -8 178 -109 185 -109 4 0 19 -8 33 -19 15 -10 47 -29 72 -43 25
-14 79 -45 120 -70 41 -25 166 -97 277 -161 111 -64 218 -128 239 -142 20 -14
41 -25 46 -25 4 0 7 112 6 251 l-3 251 -55 31 c-30 16 -57 33 -60 37 -5 6 -32
21 -97 54 -13 6 -23 14 -23 19 0 4 -6 7 -13 7 -7 0 -29 11 -49 25 -20 14 -56
36 -80 48 -24 13 -59 32 -78 43 -19 10 -37 21 -40 24 -10 10 -65 42 -92 53
-16 6 -28 15 -28 19 0 4 -7 8 -15 8 -8 0 -15 5 -15 10 0 6 -5 10 -10 10 -6 0
-34 15 -63 33 -29 18 -71 41 -94 52 -24 11 -43 23 -43 28 0 4 -5 7 -10 7 -6 0
-36 16 -66 35 -30 19 -58 35 -63 35 -5 0 -11 4 -13 9 -1 4 -39 28 -83 53 -44
25 -142 82 -219 127 -76 44 -140 81 -143 81 -2 0 -21 11 -41 25 -43 29 -42 29
-68 11z m-614 -538 l0 -73 -108 -62 -107 -62 -3 72 c-3 68 -2 73 25 94 15 13
33 23 38 23 6 0 28 12 49 26 44 30 87 54 99 54 4 0 7 -33 7 -72z"/>
<path d="M1330 2116 c-41 -23 -115 -66 -164 -94 -49 -29 -90 -52 -92 -52 -2 0
-28 -16 -58 -35 -30 -19 -57 -35 -60 -35 -3 0 -29 -15 -58 -33 -29 -18 -66
-39 -83 -47 -16 -8 -32 -17 -35 -20 -3 -3 -19 -12 -35 -21 -44 -23 -79 -43
-85 -49 -3 -3 -24 -14 -47 -25 -24 -11 -43 -23 -43 -27 0 -5 -7 -8 -15 -8 -8
0 -15 -4 -15 -9 0 -5 -11 -12 -25 -15 -14 -4 -25 -11 -25 -16 0 -6 -7 -10 -15
-10 -13 0 -15 -46 -15 -350 l0 -350 58 31 c31 17 68 39 82 49 14 9 39 24 55
32 52 26 100 53 105 59 3 3 32 21 65 40 33 18 74 42 90 51 17 10 41 24 55 30
14 7 27 15 30 18 4 4 38 23 95 54 11 6 22 13 25 16 4 4 39 24 95 54 11 6 22
13 25 16 3 3 14 10 25 16 62 33 91 50 95 55 3 4 15 9 28 13 21 7 22 13 22 102
0 104 5 110 62 80 16 -8 63 -26 105 -41 43 -14 87 -30 98 -35 11 -5 58 -22
105 -39 47 -16 130 -46 185 -66 187 -67 240 -86 310 -110 39 -13 94 -33 123
-44 29 -12 55 -21 58 -21 2 0 3 113 2 252 l-3 252 -45 15 c-25 9 -49 19 -55
22 -5 4 -26 10 -45 14 -19 4 -41 11 -50 15 -27 14 -64 28 -115 45 -27 10 -61
22 -75 27 -56 23 -68 28 -145 53 -44 14 -87 29 -95 34 -9 5 -31 12 -50 16 -19
4 -41 11 -50 16 -8 4 -49 20 -90 35 -41 14 -109 39 -150 55 -41 16 -77 29 -80
29 -3 0 -39 -20 -80 -44z"/>
<path d="M7078 1717 c-48 -15 -92 -56 -119 -109 -31 -60 -32 -176 -2 -233 47
-89 94 -119 188 -119 111 -1 176 43 208 139 34 100 14 201 -55 272 -57 58
-137 76 -220 50z m155 -67 c47 -28 71 -85 70 -166 -1 -128 -71 -196 -182 -178
-79 13 -141 111 -128 203 7 55 43 124 75 143 39 24 123 23 165 -2z"/>
<path d="M8972 1720 c-41 -10 -70 -35 -88 -79 -32 -76 28 -150 136 -167 92
-15 140 -47 140 -94 0 -45 -40 -70 -113 -70 -49 0 -66 5 -93 25 -18 14 -34 35
-36 47 -2 17 -11 24 -32 26 -28 3 -29 2 -23 -32 13 -78 72 -119 175 -120 71
-1 123 17 156 53 38 42 28 153 -15 166 -10 4 -19 10 -19 14 0 8 -46 24 -120
42 -25 6 -55 13 -66 16 -20 4 -44 40 -44 64 0 5 12 21 26 34 50 47 170 29 181
-27 5 -24 10 -28 40 -28 33 0 35 1 28 28 -9 40 -66 92 -111 102 -46 11 -76 11
-122 0z"/>
<path d="M5320 1490 l0 -230 30 0 30 0 0 230 0 230 -30 0 -30 0 0 -230z"/>
<path d="M5660 1490 l0 -230 35 0 35 0 0 170 c0 94 3 170 8 170 4 0 20 -21 36
-48 53 -83 120 -187 126 -192 3 -3 19 -26 35 -52 26 -41 35 -48 63 -48 l32 0
0 230 0 230 -30 0 -30 0 0 -182 0 -183 -65 100 c-35 55 -68 105 -72 110 -5 6
-30 43 -56 83 -43 67 -49 72 -82 72 l-35 0 0 -230z"/>
<path d="M6310 1491 l0 -231 110 0 c118 0 164 12 208 53 40 37 55 85 55 177 0
100 -15 140 -70 190 l-38 35 -132 3 -133 4 0 -231z m246 156 c69 -36 95 -168
51 -257 -31 -61 -65 -78 -159 -79 l-78 -1 0 181 0 182 78 -5 c43 -3 91 -12
108 -21z"/>
<path d="M7630 1490 l0 -230 30 0 30 0 0 183 0 182 33 -53 c65 -106 132 -207
144 -220 6 -7 22 -30 34 -52 19 -34 28 -40 56 -40 l33 0 0 230 0 230 -30 0
-30 0 0 -182 0 -183 -64 100 c-36 55 -69 105 -73 110 -5 6 -29 42 -53 82 -41
65 -48 72 -77 73 l-33 0 0 -230z"/>
<path d="M8270 1490 l0 -230 170 0 170 0 0 25 0 25 -140 0 -140 0 0 80 0 80
125 0 125 0 0 25 0 25 -125 0 -125 0 0 75 0 75 135 0 135 0 0 25 0 25 -165 0
-165 0 0 -230z"/>
<path d="M9490 1490 l0 -230 35 0 35 0 0 230 0 230 -35 0 -35 0 0 -230z"/>
<path d="M9967 1713 c-16 -26 -167 -432 -167 -448 0 -3 13 -5 29 -5 28 0 31 4
52 70 l22 70 97 0 98 0 25 -67 c22 -62 27 -68 56 -71 17 -2 31 0 31 5 0 13
-52 147 -61 158 -5 5 -9 15 -9 23 0 7 -9 34 -21 60 -37 83 -47 106 -65 160
-17 48 -20 52 -50 52 -18 0 -35 -3 -37 -7z m53 -110 c12 -32 25 -65 30 -73 4
-9 11 -30 15 -48 l7 -32 -76 0 c-69 0 -75 2 -67 18 18 34 61 158 61 175 0 29
7 20 30 -40z"/>
<path d="M3520 1550 c-25 -16 -49 -30 -53 -30 -5 0 -21 -8 -35 -19 -26 -17
-78 -47 -152 -87 -19 -11 -37 -21 -40 -24 -6 -6 -40 -26 -95 -55 -61 -33 -89
-49 -95 -55 -3 -3 -23 -14 -45 -25 -22 -11 -42 -22 -45 -25 -3 -3 -19 -12 -35
-21 -43 -23 -79 -43 -85 -49 -3 -3 -19 -12 -35 -21 -47 -25 -80 -44 -85 -50
-3 -3 -21 -14 -40 -25 -58 -32 -60 -36 -60 -133 0 -84 -1 -90 -17 -82 -10 6
-54 22 -98 36 -44 14 -89 30 -100 35 -11 4 -42 16 -70 25 -56 19 -79 28 -115
43 -14 6 -47 18 -75 27 -27 10 -59 21 -70 26 -11 4 -42 15 -70 24 -27 9 -69
25 -92 35 -24 11 -47 20 -53 20 -6 0 -18 4 -28 9 -9 6 -44 19 -77 30 -33 11
-105 36 -160 56 -182 66 -183 66 -224 46 -51 -25 -105 -55 -111 -61 -10 -10
-65 -42 -92 -53 -16 -6 -28 -15 -28 -19 0 -4 -4 -8 -9 -8 -5 0 -46 -22 -90
-50 -44 -28 -83 -50 -87 -50 -3 0 -18 -8 -32 -19 -15 -10 -48 -30 -75 -45 -26
-14 -68 -38 -95 -53 -26 -14 -56 -31 -67 -37 -11 -6 -22 -13 -25 -16 -3 -3
-19 -12 -35 -21 -43 -23 -79 -43 -85 -49 -3 -3 -22 -14 -42 -24 l-38 -19 0
-189 c0 -160 2 -188 15 -188 8 0 15 4 15 8 0 4 12 13 28 19 30 13 96 51 154
89 21 13 40 24 43 24 3 0 31 16 61 35 30 19 57 35 59 35 3 0 24 11 46 26 22
14 56 34 75 45 20 11 95 54 167 96 73 42 167 96 210 120 l77 44 0 90 c0 72 3
89 15 89 15 0 87 -25 115 -39 9 -5 31 -12 50 -16 19 -4 40 -11 45 -15 6 -4 19
-10 30 -13 11 -3 65 -21 120 -42 55 -20 127 -45 160 -56 33 -11 70 -25 83 -30
12 -5 32 -13 45 -18 12 -5 51 -19 87 -32 36 -12 94 -32 130 -45 36 -13 121
-43 190 -67 69 -25 133 -48 143 -52 10 -4 17 -3 17 4 0 6 6 11 14 11 8 0 16 3
18 8 2 4 21 16 43 27 22 11 42 22 45 25 4 4 38 24 95 54 11 6 22 13 25 16 4 4
39 24 95 54 11 6 22 13 25 16 5 5 62 37 97 54 13 6 23 14 23 19 0 4 5 7 11 7
13 0 219 117 286 162 23 15 45 28 49 28 4 0 29 14 56 31 l48 31 0 95 0 95 25
-16 c13 -9 46 -28 72 -42 26 -15 111 -64 188 -109 77 -45 159 -92 183 -105 23
-13 42 -27 42 -31 0 -4 10 -11 22 -15 12 -3 45 -22 74 -40 29 -19 58 -34 64
-34 5 0 10 -3 10 -8 0 -4 20 -16 45 -27 25 -11 45 -23 45 -27 0 -5 4 -8 10 -8
5 0 34 -16 64 -35 30 -19 60 -35 66 -35 5 0 10 -4 10 -10 0 -5 6 -10 13 -10 7
0 35 -15 62 -33 28 -19 64 -40 80 -48 17 -8 42 -23 58 -33 l27 -18 0 95 0 94
-82 49 c-46 27 -89 50 -95 52 -7 2 -13 8 -13 13 0 5 -5 9 -12 9 -6 0 -57 28
-112 63 -56 34 -111 68 -123 75 -56 30 -68 37 -73 42 -3 3 -19 12 -35 21 -86
46 -100 55 -103 62 -2 4 -10 7 -18 7 -8 0 -14 4 -14 9 0 5 -8 11 -17 14 -20 7
-65 32 -158 89 -57 34 -78 46 -185 106 -25 14 -61 36 -80 49 -19 12 -37 23
-40 23 -3 0 -25 -14 -50 -30z"/>
</g>
</svg>
